<svg width="26" height="18" viewBox="0 0 26 18" fill="none" xmlns="http://www.w3.org/2000/svg">
<path d="M25.6306 8.19363V6.04733H23.2942V0.714563H20.5148V6.04733H11.1976L5.21079 0.740855V0.714294H2.4314V6.04706H0.0949707V8.19336H2.4314V10.0714H0.0949707V12.2177H2.4314V17.4997H5.21079V12.218H14.5155L20.4971 17.5L20.5152 17.4952V17.5H23.2945V12.218H25.631V10.0716H23.2945V8.19363H25.6306ZM5.21079 4.00136L7.52741 6.04733H5.21079V4.00136ZM5.21079 10.0716V8.19363H9.95833L12.0849 10.0716H5.21079ZM20.5148 14.3055L18.1593 12.218H20.5148V14.3055ZM20.5148 10.0716H15.7377L13.6188 8.19363H20.5148V10.0716Z" fill="#F2F2F2"/>
</svg>
